<svg width="25" height="24" viewBox="0 0 25 24" fill="none" xmlns="http://www.w3.org/2000/svg">
<path fill-rule="evenodd" clip-rule="evenodd" d="M14.8348 11.9999L23.4154 3.41977C24.1989 2.63739 24.1989 1.36916 23.4154 0.586783C22.633 -0.195594 21.3657 -0.195594 20.5823 0.586783L12.0016 9.16689L3.41998 0.586783C2.63756 -0.195594 1.37025 -0.195594 0.58682 0.586783C-0.195607 1.36916 -0.195607 2.63739 0.58682 3.41977L9.16846 11.9999L0.58682 20.58C-0.195607 21.3624 -0.195607 22.6316 0.58682 23.414C0.978534 23.8047 1.49147 24 2.0034 24C2.51634 24 3.02927 23.8047 3.41998 23.414L12.0016 14.8329L20.5823 23.414C20.974 23.8047 21.4869 24 21.9989 24C22.5118 24 23.0247 23.8047 23.4154 23.414C24.1989 22.6316 24.1989 21.3624 23.4154 20.58L14.8348 11.9999Z" fill="#FF6376"/>
</svg>
