<svg width="213" height="118" viewBox="0 0 213 118" fill="none" xmlns="http://www.w3.org/2000/svg">
<path d="M69 84.61C69 83.7916 68.5015 83.0559 67.7415 82.7525L2.74148 56.8054C1.42794 56.281 0 57.2485 0 58.6629V89.4743C0 90.2927 0.49852 91.0284 1.25852 91.3318L66.2585 117.279C67.5721 117.803 69 116.836 69 115.421V84.61Z" fill="#DA4A5B"/>
<path d="M119 24.5773C119 23.6538 119.632 22.8503 120.53 22.6333L209.78 1.05647C211.44 0.655192 212.806 2.38446 212.033 3.90672L200 27.5785L212.609 48.7051C213.299 49.8623 212.671 51.3574 211.361 51.6741L121.47 73.4061C120.211 73.7103 119 72.7568 119 71.4621V24.5773Z" fill="#F25367"/>
<path d="M119 41.149C119 40.4459 119.369 39.7944 119.973 39.4331L161.973 14.2844C163.306 13.4862 165 14.4465 165 16.0003V48.9363C165 49.6692 164.599 50.3433 163.955 50.6934L121.955 73.5272C120.623 74.2517 119 73.287 119 71.7701V41.149Z" fill="#D14556"/>
<path d="M0 41.1152C0 40.1922 0.63172 39.389 1.5288 39.1715L162.529 0.141235C163.788 -0.163927 165 0.789683 165 2.08493V48.9691C165 49.8921 164.368 50.6953 163.471 50.9128L2.4712 89.9431C1.21241 90.2482 0 89.2946 0 87.9994V41.1152Z" fill="#FF6376"/>
<path d="M68.8451 41.2816L65.2955 55.0325L60.8582 56.057L58.6625 49.7472L56.7892 56.9963L52.3519 58.0208L48.0443 46.0838L52.1308 45.1404L54.5356 51.9561L56.5681 44.116L60.374 43.2373L62.7154 50.1785L64.7762 42.221L68.8451 41.2816ZM77.076 52.6083C75.8249 52.8972 74.6732 52.9229 73.6208 52.6856C72.5775 52.4338 71.7027 51.9523 70.9966 51.2409C70.3022 50.5268 69.8308 49.6319 69.5824 48.5562C69.2531 47.1297 69.2876 45.7855 69.6859 44.5235C70.0933 43.2472 70.81 42.1642 71.8362 41.2746C72.874 40.3822 74.1354 39.7646 75.6204 39.4218C76.8715 39.133 78.0187 39.1144 79.0621 39.3662C80.1144 39.6035 80.9878 40.0793 81.6823 40.7933C82.3884 41.5047 82.8656 42.3983 83.114 43.474C83.4433 44.9005 83.4043 46.2519 82.997 47.5282C82.5987 48.7902 81.8806 49.8673 80.8427 50.7596C79.8165 51.6493 78.561 52.2655 77.076 52.6083ZM76.6534 49.1775C77.3082 49.0263 77.8361 48.7258 78.2372 48.2761C78.65 47.8236 78.9189 47.2812 79.0439 46.6489C79.1688 46.0166 79.153 45.3614 78.9965 44.6832C78.8291 43.9583 78.4792 43.4294 77.9467 43.0967C77.4259 42.7613 76.7913 42.6799 76.043 42.8527C75.3882 43.0039 74.8544 43.3057 74.4416 43.7581C74.0405 44.2079 73.7775 44.7489 73.6525 45.3812C73.5276 46.0135 73.5434 46.6688 73.6999 47.3469C73.8673 48.0719 74.2114 48.6021 74.7322 48.9375C75.2647 49.2702 75.9051 49.3502 76.6534 49.1775ZM104.266 33.104L100.716 46.8549L96.2792 47.8794L94.0835 41.5696L92.2102 48.8188L87.7729 49.8432L83.4653 37.9063L87.5518 36.9628L89.9567 43.7785L91.9891 35.9384L95.795 35.0597L98.1364 42.0009L100.197 34.0434L104.266 33.104ZM105.146 32.9009L109.881 31.8077L109.333 39.9148L106.176 40.6436L105.146 32.9009ZM108.196 45.3129C107.553 45.4613 106.984 45.3957 106.488 45.1161C105.992 44.8364 105.682 44.4276 105.558 43.8898C105.407 43.235 105.511 42.6445 105.87 42.1183C106.24 41.5894 106.776 41.244 107.478 41.082C108.121 40.9335 108.689 40.9933 109.182 41.2613C109.675 41.5293 109.983 41.9322 110.108 42.47C110.256 43.1131 110.148 43.7108 109.783 44.2631C109.415 44.8037 108.886 45.1536 108.196 45.3129Z" fill="white"/>
</svg>
