<svg
    width="24"
    height="24"
    viewBox="0 0 24 24"
    xmlns="http://www.w3.org/2000/svg"
>
    <path
        fill-rule="evenodd"
        clip-rule="evenodd"
        d="M6.62299 0H17.3767C21.0289 0 24.0001 2.97122 24 6.62313V17.3769C24 21.0288 21.0289 24 17.3767 24H6.62299C2.97108 24 0 21.0289 0 17.3769V6.62313C0 2.97122 2.97108 0 6.62299 0ZM17.3769 21.8706C19.8548 21.8706 21.8707 19.8548 21.8707 17.3769H21.8706V6.62313C21.8706 4.14537 19.8546 2.1294 17.3767 2.1294H6.62299C4.14522 2.1294 2.1294 4.14537 2.1294 6.62313V17.3769C2.1294 19.8548 4.14522 21.8707 6.62299 21.8706H17.3769ZM6 12.0001C6 8.69161 8.69155 6 12 6C15.3084 6 18 8.69161 18 12.0001C18 15.3085 15.3084 18 12 18C8.69155 18 6 15.3085 6 12.0001ZM8.06597 12C8.06597 14.1692 9.83089 15.9339 12.0001 15.9339C14.1692 15.9339 15.9341 14.1692 15.9341 12C15.9341 9.83068 14.1694 8.06588 12.0001 8.06588C9.83075 8.06588 8.06597 9.83068 8.06597 12ZM17.2698 4.46836C17.5667 4.17018 17.9796 4 18.4 4C18.8218 4 19.2349 4.17018 19.5316 4.46836C19.8298 4.76509 20 5.17818 20 5.6C20 6.02036 19.8298 6.43345 19.5316 6.73164C19.2335 7.02836 18.8218 7.2 18.4 7.2C17.9796 7.2 17.5665 7.02836 17.2698 6.73164C16.9716 6.43345 16.8 6.02051 16.8 5.6C16.8 5.17818 16.9715 4.76509 17.2698 4.46836Z"
    />
</svg>