<svg
    width="213"
    height="118"
    viewBox="0 0 213 118"
    fill="none"
    xmlns="http://www.w3.org/2000/svg"
>
    <path
        d="M69 84.5255C69 83.7072 68.5015 82.9714 67.7415 82.668L2.74148 56.7209C1.42794 56.1966 0 57.1641 0 58.5784V89.3899C0 90.2082 0.49852 90.944 1.25852 91.2473L66.2585 117.194C67.5721 117.719 69 116.751 69 115.337V84.5255Z"
        fill="#DA4A5B"
    />
    <path
        d="M119 25.5773C119 24.6538 119.632 23.8503 120.53 23.6333L209.78 2.05647C211.44 1.65519 212.806 3.38446 212.033 4.90672L200 28.5785L212.609 49.7051C213.299 50.8623 212.671 52.3574 211.361 52.6741L121.47 74.4061C120.211 74.7103 119 73.7568 119 72.4621V25.5773Z"
        fill="#F25367"
    />
    <path
        d="M119 42.3038C119 41.6007 119.369 40.9491 119.973 40.5879L161.973 15.4392C163.306 14.641 165 15.6013 165 17.1551V50.0911C165 50.8239 164.599 51.4981 163.955 51.8482L121.955 74.682C120.623 75.4065 119 74.4418 119 72.9249V42.3038Z"
        fill="#D14556"
    />
    <path
        d="M0 41.0308C0 40.1077 0.63172 39.3045 1.5288 39.0871L162.529 0.0567621C163.788 -0.248399 165 0.70521 165 2.00046V48.8846C165 49.8077 164.368 50.6108 163.471 50.8283L2.4712 89.8586C1.21241 90.1638 0 89.2102 0 87.9149V41.0308Z"
        fill="#FF6376"
    />
    <path
        d="M65.3909 44.3144L62.769 47.8939C63.6913 47.9683 64.4621 48.2574 65.0813 48.761C65.7004 49.2646 66.1061 49.9325 66.2982 50.7646C66.5312 51.774 66.4217 52.762 65.9695 53.7285C65.5309 54.6918 64.8127 55.533 63.8149 56.2519C62.817 56.9707 61.636 57.4877 60.2719 57.8026C59.2215 58.0451 58.1906 58.1538 57.179 58.1287C56.1811 58.1005 55.2555 57.919 54.4024 57.5844L55.8171 53.7232C56.4415 53.9382 57.0947 54.0604 57.7768 54.0897C58.4588 54.119 59.1068 54.0628 59.7206 53.9211C60.3891 53.7668 60.877 53.5464 61.1844 53.2599C61.4887 52.9598 61.5952 52.6119 61.5039 52.2163C61.3716 51.6434 60.828 51.4671 59.8731 51.6876L57.8883 52.1458L57.7967 49.0418L59.7971 46.317L54.7225 47.4886L54.6183 43.6763L65.2993 41.2104L65.3909 44.3144ZM72.4593 43.3937L72.3965 44.8953L72.7648 44.8103C74.4836 44.4135 75.8787 44.4506 76.9501 44.9217C78.0352 45.3896 78.7305 46.2851 79.036 47.6083C79.2974 48.7405 79.2119 49.802 78.7797 50.7926C78.3475 51.7832 77.6308 52.6311 76.6298 53.3364C75.6393 54.0249 74.4484 54.5297 73.057 54.8509C72.0066 55.0934 70.9756 55.2021 69.964 55.177C68.9661 55.1488 68.0406 54.9674 67.1874 54.6327L68.6021 50.7715C69.2265 50.9866 69.8797 51.1087 70.5618 51.1381C71.2439 51.1674 71.8918 51.1112 72.5057 50.9695C73.1741 50.8151 73.662 50.5947 73.9695 50.3082C74.2737 50.0081 74.3818 49.667 74.2936 49.2851C74.2212 48.9713 74.0312 48.7709 73.7238 48.6839C73.4131 48.5832 72.9373 48.6068 72.2961 48.7548L67.9378 49.761L68.3855 40.4979L77.9002 38.3013L78.0045 42.1135L72.4593 43.3937ZM85.4827 40.387L85.5585 42.9558L91.5333 41.5764L91.6376 45.3887L85.6832 46.7634L85.8206 51.5594L80.9916 52.6742L80.5495 37.6896L92.1922 35.0017L92.2965 38.814L85.4827 40.387ZM93.8883 34.6101L98.7173 33.4953L99.1594 48.4799L94.3304 49.5947L93.8883 34.6101ZM104.43 36.1205L100.235 37.0889L100.128 33.1696L113.346 30.1179L113.454 34.0372L109.259 35.0056L109.594 46.0709L104.765 47.1858L104.43 36.1205Z"
        fill="white"
    />
</svg>